<svg xmlns="http://www.w3.org/2000/svg" viewBox="0 0 3240 600" width="3240" height="600">
  <rect width="100%" height="100%" fill="#F2F2F7"/>
  <path d="M 1460 200 L 1460 200 L 1500 200 L 1500 200 A 20 20 0 0 1 1520 220 L 1520 220 A 20 20 0 0 0 1540 240 L 1540 240 A 20 20 0 0 0 1560 220 L 1560 220 A 20 20 0 0 1 1580 200 L 1580 200 A 20 20 0 0 1 1600 220 L 1600 220 A 20 20 0 0 1 1580 240 L 1580 240 A 20 20 0 0 0 1560 260 L 1560 260 A 20 20 0 0 0 1580 280 L 1580 280 A 20 20 0 0 1 1600 300 L 1600 300 L 1600 340 L 1600 340 A 20 20 0 0 1 1580 360 L 1580 360 A 20 20 0 0 0 1560 380 L 1560 380 A 20 20 0 0 1 1540 400 L 1540 400 L 1500 400 L 1500 400 A 20 20 0 0 1 1480 380 L 1480 380 A 20 20 0 0 0 1460 360 L 1460 360 A 20 20 0 0 0 1440 380 L 1440 380 A 20 20 0 0 1 1420 400 L 1420 400 A 20 20 0 0 1 1400 380 L 1400 380 A 20 20 0 0 1 1420 360 L 1420 360 A 20 20 0 0 0 1440 340 L 1440 340 A 20 20 0 0 0 1420 320 L 1420 320 A 20 20 0 0 1 1400 300 L 1400 300 L 1400 260 L 1400 260 A 20 20 0 0 1 1420 240 L 1420 240 A 20 20 0 0 0 1440 220 L 1440 220 A 20 20 0 0 1 1460 200 Z M 1460 240 L 1460 240 A 20 20 0 0 0 1440 260 L 1440 260 L 1440 300 L 1440 300 A 20 20 0 0 0 1460 320 L 1460 320 A 20 20 0 0 0 1480 300 L 1480 300 A 20 20 0 0 1 1500 280 L 1500 280 A 20 20 0 0 0 1520 260 L 1520 260 A 20 20 0 0 0 1500 240 L 1500 240 L 1460 240 Z M 1560 300 L 1560 300 A 20 20 0 0 0 1540 280 L 1540 280 A 20 20 0 0 0 1520 300 L 1520 300 A 20 20 0 0 1 1500 320 L 1500 320 A 20 20 0 0 0 1480 340 L 1480 340 A 20 20 0 0 0 1500 360 L 1500 360 L 1540 360 L 1540 360 A 20 20 0 0 0 1560 340 L 1560 340 L 1560 300 Z M 1220 200 L 1220 200 L 1260 200 L 1260 200 L 1300 200 L 1300 200 A 20 20 0 0 1 1320 220 L 1320 220 A 20 20 0 0 0 1340 240 L 1340 240 A 20 20 0 0 1 1360 260 L 1360 260 A 20 20 0 0 1 1340 280 L 1340 280 A 20 20 0 0 0 1320 300 L 1320 300 A 20 20 0 0 1 1300 320 L 1300 320 L 1260 320 L 1260 320 L 1220 320 L 1220 320 A 20 20 0 0 0 1200 340 L 1200 340 L 1200 380 L 1200 380 A 20 20 0 0 1 1180 400 L 1180 400 A 20 20 0 0 1 1160 380 L 1160 380 L 1160 340 L 1160 340 A 20 20 0 0 1 1180 320 L 1180 320 A 20 20 0 0 0 1200 300 L 1200 300 A 20 20 0 0 0 1180 280 L 1180 280 A 20 20 0 0 1 1160 260 L 1160 260 A 20 20 0 0 1 1180 240 L 1180 240 A 20 20 0 0 0 1200 220 L 1200 220 A 20 20 0 0 1 1220 200 Z M 1220 240 L 1220 240 A 20 20 0 0 0 1200 260 L 1200 260 A 20 20 0 0 0 1220 280 L 1220 280 L 1260 280 L 1260 280 L 1300 280 L 1300 280 A 20 20 0 0 0 1320 260 L 1320 260 A 20 20 0 0 0 1300 240 L 1300 240 L 1260 240 L 1260 240 L 1220 240 Z M 1660 240 L 1660 240 A 20 20 0 0 0 1680 220 L 1680 220 A 20 20 0 0 1 1700 200 L 1700 200 L 1740 200 L 1740 200 L 1780 200 L 1780 200 A 20 20 0 0 1 1800 220 L 1800 220 A 20 20 0 0 0 1820 240 L 1820 240 A 20 20 0 0 1 1840 260 L 1840 260 A 20 20 0 0 1 1820 280 L 1820 280 A 20 20 0 0 1 1800 260 L 1800 260 A 20 20 0 0 0 1780 240 L 1780 240 L 1740 240 L 1740 240 L 1700 240 L 1700 240 A 20 20 0 0 0 1680 260 L 1680 260 A 20 20 0 0 0 1700 280 L 1700 280 L 1740 280 L 1740 280 A 20 20 0 0 1 1760 300 L 1760 300 A 20 20 0 0 1 1740 320 L 1740 320 L 1700 320 L 1700 320 A 20 20 0 0 0 1680 340 L 1680 340 A 20 20 0 0 0 1700 360 L 1700 360 L 1740 360 L 1740 360 L 1780 360 L 1780 360 A 20 20 0 0 0 1800 340 L 1800 340 A 20 20 0 0 1 1820 320 L 1820 320 A 20 20 0 0 1 1840 340 L 1840 340 A 20 20 0 0 1 1820 360 L 1820 360 A 20 20 0 0 0 1800 380 L 1800 380 A 20 20 0 0 1 1780 400 L 1780 400 L 1740 400 L 1740 400 L 1700 400 L 1700 400 A 20 20 0 0 1 1680 380 L 1680 380 A 20 20 0 0 0 1660 360 L 1660 360 A 20 20 0 0 1 1640 340 L 1640 340 A 20 20 0 0 1 1660 320 L 1660 320 A 20 20 0 0 0 1680 300 L 1680 300 A 20 20 0 0 0 1660 280 L 1660 280 A 20 20 0 0 1 1640 260 L 1640 260 A 20 20 0 0 1 1660 240 Z M 1900 200 L 1900 200 L 1940 200 L 1940 200 A 20 20 0 0 1 1960 220 L 1960 220 A 20 20 0 0 0 1980 240 L 1980 240 A 20 20 0 0 0 2000 220 L 2000 220 A 20 20 0 0 1 2020 200 L 2020 200 L 2060 200 L 2060 200 A 20 20 0 0 1 2080 220 L 2080 220 A 20 20 0 0 1 2060 240 L 2060 240 L 2020 240 L 2020 240 A 20 20 0 0 0 2000 260 L 2000 260 L 2000 300 L 2000 300 L 2000 340 L 2000 340 L 2000 380 L 2000 380 A 20 20 0 0 1 1980 400 L 1980 400 A 20 20 0 0 1 1960 380 L 1960 380 L 1960 340 L 1960 340 L 1960 300 L 1960 300 L 1960 260 L 1960 260 A 20 20 0 0 0 1940 240 L 1940 240 L 1900 240 L 1900 240 A 20 20 0 0 1 1880 220 L 1880 220 A 20 20 0 0 1 1900 200 Z M 2180 200 L 2180 200 A 20 20 0 0 1 2200 220 L 2200 220 A 20 20 0 0 0 2220 240 L 2220 240 A 20 20 0 0 0 2240 220 L 2240 220 A 20 20 0 0 1 2260 200 L 2260 200 L 2300 200 L 2300 200 A 20 20 0 0 1 2320 220 L 2320 220 A 20 20 0 0 1 2300 240 L 2300 240 L 2260 240 L 2260 240 A 20 20 0 0 0 2240 260 L 2240 260 L 2240 300 L 2240 300 L 2240 340 L 2240 340 A 20 20 0 0 0 2260 360 L 2260 360 L 2300 360 L 2300 360 A 20 20 0 0 1 2320 380 L 2320 380 A 20 20 0 0 1 2300 400 L 2300 400 L 2260 400 L 2260 400 A 20 20 0 0 1 2240 380 L 2240 380 A 20 20 0 0 0 2220 360 L 2220 360 A 20 20 0 0 0 2200 380 L 2200 380 A 20 20 0 0 1 2180 400 L 2180 400 L 2140 400 L 2140 400 A 20 20 0 0 1 2120 380 L 2120 380 A 20 20 0 0 1 2140 360 L 2140 360 L 2180 360 L 2180 360 A 20 20 0 0 0 2200 340 L 2200 340 L 2200 300 L 2200 300 L 2200 260 L 2200 260 A 20 20 0 0 0 2180 240 L 2180 240 L 2140 240 L 2140 240 A 20 20 0 0 1 2120 220 L 2120 220 A 20 20 0 0 1 2140 200 L 2140 200 L 2180 200 Z M 2420 200 L 2420 200 L 2460 200 L 2460 200 L 2500 200 L 2500 200 A 20 20 0 0 1 2520 220 L 2520 220 A 20 20 0 0 0 2540 240 L 2540 240 A 20 20 0 0 1 2560 260 L 2560 260 A 20 20 0 0 1 2540 280 L 2540 280 A 20 20 0 0 1 2520 260 L 2520 260 A 20 20 0 0 0 2500 240 L 2500 240 L 2460 240 L 2460 240 L 2420 240 L 2420 240 A 20 20 0 0 0 2400 260 L 2400 260 L 2400 300 L 2400 300 L 2400 340 L 2400 340 A 20 20 0 0 0 2420 360 L 2420 360 L 2460 360 L 2460 360 L 2500 360 L 2500 360 A 20 20 0 0 0 2520 340 L 2520 340 A 20 20 0 0 1 2540 320 L 2540 320 A 20 20 0 0 1 2560 340 L 2560 340 A 20 20 0 0 1 2540 360 L 2540 360 A 20 20 0 0 0 2520 380 L 2520 380 A 20 20 0 0 1 2500 400 L 2500 400 L 2460 400 L 2460 400 L 2420 400 L 2420 400 A 20 20 0 0 1 2400 380 L 2400 380 A 20 20 0 0 0 2380 360 L 2380 360 A 20 20 0 0 1 2360 340 L 2360 340 L 2360 300 L 2360 300 L 2360 260 L 2360 260 A 20 20 0 0 1 2380 240 L 2380 240 A 20 20 0 0 0 2400 220 L 2400 220 A 20 20 0 0 1 2420 200 Z M 2700 360 L 2700 360 A 20 20 0 0 0 2720 340 L 2720 340 L 2720 300 L 2720 300 A 20 20 0 0 1 2740 280 L 2740 280 A 20 20 0 0 0 2760 260 L 2760 260 L 2760 220 L 2760 220 A 20 20 0 0 1 2780 200 L 2780 200 A 20 20 0 0 1 2800 220 L 2800 220 L 2800 260 L 2800 260 A 20 20 0 0 1 2780 280 L 2780 280 A 20 20 0 0 0 2760 300 L 2760 300 L 2760 340 L 2760 340 A 20 20 0 0 1 2740 360 L 2740 360 A 20 20 0 0 0 2720 380 L 2720 380 A 20 20 0 0 1 2700 400 L 2700 400 A 20 20 0 0 1 2680 380 L 2680 380 A 20 20 0 0 0 2660 360 L 2660 360 A 20 20 0 0 1 2640 340 L 2640 340 L 2640 300 L 2640 300 A 20 20 0 0 0 2620 280 L 2620 280 A 20 20 0 0 1 2600 260 L 2600 260 L 2600 220 L 2600 220 A 20 20 0 0 1 2620 200 L 2620 200 A 20 20 0 0 1 2640 220 L 2640 220 L 2640 260 L 2640 260 A 20 20 0 0 0 2660 280 L 2660 280 A 20 20 0 0 1 2680 300 L 2680 300 L 2680 340 L 2680 340 A 20 20 0 0 0 2700 360 Z M 2900 200 L 2900 200 L 2940 200 L 2940 200 L 2980 200 L 2980 200 L 3020 200 L 3020 200 A 20 20 0 0 1 3040 220 L 3040 220 A 20 20 0 0 1 3020 240 L 3020 240 L 2980 240 L 2980 240 L 2940 240 L 2940 240 L 2900 240 L 2900 240 A 20 20 0 0 0 2880 260 L 2880 260 A 20 20 0 0 0 2900 280 L 2900 280 L 2940 280 L 2940 280 L 2980 280 L 2980 280 A 20 20 0 0 1 3000 300 L 3000 300 A 20 20 0 0 0 3020 320 L 3020 320 A 20 20 0 0 1 3040 340 L 3040 340 A 20 20 0 0 1 3020 360 L 3020 360 A 20 20 0 0 0 3000 380 L 3000 380 A 20 20 0 0 1 2980 400 L 2980 400 L 2940 400 L 2940 400 L 2900 400 L 2900 400 L 2860 400 L 2860 400 A 20 20 0 0 1 2840 380 L 2840 380 A 20 20 0 0 1 2860 360 L 2860 360 L 2900 360 L 2900 360 L 2940 360 L 2940 360 L 2980 360 L 2980 360 A 20 20 0 0 0 3000 340 L 3000 340 A 20 20 0 0 0 2980 320 L 2980 320 L 2940 320 L 2940 320 L 2900 320 L 2900 320 A 20 20 0 0 1 2880 300 L 2880 300 A 20 20 0 0 0 2860 280 L 2860 280 A 20 20 0 0 1 2840 260 L 2840 260 A 20 20 0 0 1 2860 240 L 2860 240 A 20 20 0 0 0 2880 220 L 2880 220 A 20 20 0 0 1 2900 200 Z M 1100 200 L 1100 200 A 20 20 0 0 1 1120 220 L 1120 220 A 20 20 0 0 1 1100 240 L 1100 240 L 1060 240 L 1060 240 L 1020 240 L 1020 240 L 980 240 L 980 240 A 20 20 0 0 0 960 260 L 960 260 A 20 20 0 0 0 980 280 L 980 280 L 1020 280 L 1020 280 L 1060 280 L 1060 280 A 20 20 0 0 1 1080 300 L 1080 300 A 20 20 0 0 0 1100 320 L 1100 320 A 20 20 0 0 1 1120 340 L 1120 340 A 20 20 0 0 1 1100 360 L 1100 360 A 20 20 0 0 0 1080 380 L 1080 380 A 20 20 0 0 1 1060 400 L 1060 400 L 1020 400 L 1020 400 L 980 400 L 980 400 L 940 400 L 940 400 A 20 20 0 0 1 920 380 L 920 380 A 20 20 0 0 1 940 360 L 940 360 L 980 360 L 980 360 L 1020 360 L 1020 360 L 1060 360 L 1060 360 A 20 20 0 0 0 1080 340 L 1080 340 A 20 20 0 0 0 1060 320 L 1060 320 L 1020 320 L 1020 320 L 980 320 L 980 320 A 20 20 0 0 1 960 300 L 960 300 A 20 20 0 0 0 940 280 L 940 280 A 20 20 0 0 1 920 260 L 920 260 A 20 20 0 0 1 940 240 L 940 240 A 20 20 0 0 0 960 220 L 960 220 A 20 20 0 0 1 980 200 L 980 200 L 1020 200 L 1020 200 L 1060 200 L 1060 200 L 1100 200 Z M 860 200 L 860 200 A 20 20 0 0 1 880 220 L 880 220 L 880 260 L 880 260 A 20 20 0 0 1 860 280 L 860 280 A 20 20 0 0 0 840 300 L 840 300 L 840 340 L 840 340 A 20 20 0 0 1 820 360 L 820 360 A 20 20 0 0 0 800 380 L 800 380 A 20 20 0 0 1 780 400 L 780 400 A 20 20 0 0 1 760 380 L 760 380 A 20 20 0 0 0 740 360 L 740 360 A 20 20 0 0 1 720 340 L 720 340 L 720 300 L 720 300 A 20 20 0 0 0 700 280 L 700 280 A 20 20 0 0 1 680 260 L 680 260 L 680 220 L 680 220 A 20 20 0 0 1 700 200 L 700 200 A 20 20 0 0 1 720 220 L 720 220 L 720 260 L 720 260 A 20 20 0 0 0 740 280 L 740 280 A 20 20 0 0 1 760 300 L 760 300 L 760 340 L 760 340 A 20 20 0 0 0 780 360 L 780 360 A 20 20 0 0 0 800 340 L 800 340 L 800 300 L 800 300 A 20 20 0 0 1 820 280 L 820 280 A 20 20 0 0 0 840 260 L 840 260 L 840 220 L 840 220 A 20 20 0 0 1 860 200 Z M 620 240 L 620 240 A 20 20 0 0 1 640 260 L 640 260 A 20 20 0 0 1 620 280 L 620 280 A 20 20 0 0 1 600 260 L 600 260 A 20 20 0 0 0 580 240 L 580 240 L 540 240 L 540 240 L 500 240 L 500 240 A 20 20 0 0 0 480 260 L 480 260 A 20 20 0 0 0 500 280 L 500 280 L 540 280 L 540 280 A 20 20 0 0 1 560 300 L 560 300 A 20 20 0 0 1 540 320 L 540 320 L 500 320 L 500 320 A 20 20 0 0 0 480 340 L 480 340 A 20 20 0 0 0 500 360 L 500 360 L 540 360 L 540 360 L 580 360 L 580 360 A 20 20 0 0 0 600 340 L 600 340 A 20 20 0 0 1 620 320 L 620 320 A 20 20 0 0 1 640 340 L 640 340 A 20 20 0 0 1 620 360 L 620 360 A 20 20 0 0 0 600 380 L 600 380 A 20 20 0 0 1 580 400 L 580 400 L 540 400 L 540 400 L 500 400 L 500 400 A 20 20 0 0 1 480 380 L 480 380 A 20 20 0 0 0 460 360 L 460 360 A 20 20 0 0 1 440 340 L 440 340 A 20 20 0 0 1 460 320 L 460 320 A 20 20 0 0 0 480 300 L 480 300 A 20 20 0 0 0 460 280 L 460 280 A 20 20 0 0 1 440 260 L 440 260 A 20 20 0 0 1 460 240 L 460 240 A 20 20 0 0 0 480 220 L 480 220 A 20 20 0 0 1 500 200 L 500 200 L 540 200 L 540 200 L 580 200 L 580 200 A 20 20 0 0 1 600 220 L 600 220 A 20 20 0 0 0 620 240 Z M 400 300 L 400 300 L 400 340 L 400 340 A 20 20 0 0 1 380 360 L 380 360 A 20 20 0 0 0 360 380 L 360 380 A 20 20 0 0 1 340 400 L 340 400 L 300 400 L 300 400 A 20 20 0 0 1 280 380 L 280 380 A 20 20 0 0 0 260 360 L 260 360 A 20 20 0 0 0 240 380 L 240 380 A 20 20 0 0 1 220 400 L 220 400 A 20 20 0 0 1 200 380 L 200 380 A 20 20 0 0 1 220 360 L 220 360 A 20 20 0 0 0 240 340 L 240 340 L 240 300 L 240 300 L 240 260 L 240 260 A 20 20 0 0 0 220 240 L 220 240 A 20 20 0 0 1 200 220 L 200 220 A 20 20 0 0 1 220 200 L 220 200 A 20 20 0 0 1 240 220 L 240 220 A 20 20 0 0 0 260 240 L 260 240 A 20 20 0 0 0 280 220 L 280 220 A 20 20 0 0 1 300 200 L 300 200 L 340 200 L 340 200 A 20 20 0 0 1 360 220 L 360 220 A 20 20 0 0 0 380 240 L 380 240 A 20 20 0 0 1 400 260 L 400 260 L 400 300 Z M 360 300 L 360 300 L 360 260 L 360 260 A 20 20 0 0 0 340 240 L 340 240 L 300 240 L 300 240 A 20 20 0 0 0 280 260 L 280 260 L 280 300 L 280 300 L 280 340 L 280 340 A 20 20 0 0 0 300 360 L 300 360 L 340 360 L 340 360 A 20 20 0 0 0 360 340 L 360 340 L 360 300 Z M 220 120 L 220 120 L 260 120 L 260 120 L 300 120 L 300 120 L 340 120 L 340 120 L 380 120 L 380 120 L 420 120 L 420 120 L 460 120 L 460 120 L 500 120 L 500 120 L 540 120 L 540 120 L 580 120 L 580 120 L 620 120 L 620 120 L 660 120 L 660 120 L 700 120 L 700 120 L 740 120 L 740 120 L 780 120 L 780 120 L 820 120 L 820 120 L 860 120 L 860 120 L 900 120 L 900 120 L 940 120 L 940 120 L 980 120 L 980 120 L 1020 120 L 1020 120 L 1060 120 L 1060 120 L 1100 120 L 1100 120 L 1140 120 L 1140 120 L 1180 120 L 1180 120 L 1220 120 L 1220 120 L 1260 120 L 1260 120 L 1300 120 L 1300 120 L 1340 120 L 1340 120 L 1380 120 L 1380 120 L 1420 120 L 1420 120 L 1460 120 L 1460 120 L 1500 120 L 1500 120 L 1540 120 L 1540 120 L 1580 120 L 1580 120 L 1620 120 L 1620 120 L 1660 120 L 1660 120 L 1700 120 L 1700 120 L 1740 120 L 1740 120 L 1780 120 L 1780 120 L 1820 120 L 1820 120 L 1860 120 L 1860 120 L 1900 120 L 1900 120 L 1940 120 L 1940 120 L 1980 120 L 1980 120 L 2020 120 L 2020 120 L 2060 120 L 2060 120 L 2100 120 L 2100 120 L 2140 120 L 2140 120 L 2180 120 L 2180 120 L 2220 120 L 2220 120 L 2260 120 L 2260 120 L 2300 120 L 2300 120 L 2340 120 L 2340 120 L 2380 120 L 2380 120 L 2420 120 L 2420 120 L 2460 120 L 2460 120 L 2500 120 L 2500 120 L 2540 120 L 2540 120 L 2580 120 L 2580 120 L 2620 120 L 2620 120 L 2660 120 L 2660 120 L 2700 120 L 2700 120 L 2740 120 L 2740 120 L 2780 120 L 2780 120 L 2820 120 L 2820 120 L 2860 120 L 2860 120 L 2900 120 L 2900 120 L 2940 120 L 2940 120 L 2980 120 L 2980 120 L 3020 120 L 3020 120 A 20 20 0 0 0 3040 100 L 3040 100 A 20 20 0 0 1 3060 80 L 3060 80 A 20 20 0 0 1 3080 100 L 3080 100 A 20 20 0 0 1 3060 120 L 3060 120 A 20 20 0 0 0 3040 140 L 3040 140 A 20 20 0 0 1 3020 160 L 3020 160 L 2980 160 L 2980 160 L 2940 160 L 2940 160 L 2900 160 L 2900 160 L 2860 160 L 2860 160 L 2820 160 L 2820 160 L 2780 160 L 2780 160 L 2740 160 L 2740 160 L 2700 160 L 2700 160 L 2660 160 L 2660 160 L 2620 160 L 2620 160 L 2580 160 L 2580 160 L 2540 160 L 2540 160 L 2500 160 L 2500 160 L 2460 160 L 2460 160 L 2420 160 L 2420 160 L 2380 160 L 2380 160 L 2340 160 L 2340 160 L 2300 160 L 2300 160 L 2260 160 L 2260 160 L 2220 160 L 2220 160 L 2180 160 L 2180 160 L 2140 160 L 2140 160 L 2100 160 L 2100 160 L 2060 160 L 2060 160 L 2020 160 L 2020 160 L 1980 160 L 1980 160 L 1940 160 L 1940 160 L 1900 160 L 1900 160 L 1860 160 L 1860 160 L 1820 160 L 1820 160 L 1780 160 L 1780 160 L 1740 160 L 1740 160 L 1700 160 L 1700 160 L 1660 160 L 1660 160 L 1620 160 L 1620 160 L 1580 160 L 1580 160 L 1540 160 L 1540 160 L 1500 160 L 1500 160 L 1460 160 L 1460 160 L 1420 160 L 1420 160 L 1380 160 L 1380 160 L 1340 160 L 1340 160 L 1300 160 L 1300 160 L 1260 160 L 1260 160 L 1220 160 L 1220 160 L 1180 160 L 1180 160 L 1140 160 L 1140 160 L 1100 160 L 1100 160 L 1060 160 L 1060 160 L 1020 160 L 1020 160 L 980 160 L 980 160 L 940 160 L 940 160 L 900 160 L 900 160 L 860 160 L 860 160 L 820 160 L 820 160 L 780 160 L 780 160 L 740 160 L 740 160 L 700 160 L 700 160 L 660 160 L 660 160 L 620 160 L 620 160 L 580 160 L 580 160 L 540 160 L 540 160 L 500 160 L 500 160 L 460 160 L 460 160 L 420 160 L 420 160 L 380 160 L 380 160 L 340 160 L 340 160 L 300 160 L 300 160 L 260 160 L 260 160 L 220 160 L 220 160 A 20 20 0 0 1 200 140 L 200 140 A 20 20 0 0 0 180 120 L 180 120 A 20 20 0 0 1 160 100 L 160 100 A 20 20 0 0 1 180 80 L 180 80 A 20 20 0 0 1 200 100 L 200 100 A 20 20 0 0 0 220 120 Z M 180 480 L 180 480 A 20 20 0 0 0 200 460 L 200 460 A 20 20 0 0 1 220 440 L 220 440 L 260 440 L 260 440 L 300 440 L 300 440 L 340 440 L 340 440 L 380 440 L 380 440 L 420 440 L 420 440 L 460 440 L 460 440 L 500 440 L 500 440 L 540 440 L 540 440 L 580 440 L 580 440 L 620 440 L 620 440 L 660 440 L 660 440 L 700 440 L 700 440 L 740 440 L 740 440 L 780 440 L 780 440 L 820 440 L 820 440 L 860 440 L 860 440 L 900 440 L 900 440 L 940 440 L 940 440 L 980 440 L 980 440 L 1020 440 L 1020 440 L 1060 440 L 1060 440 L 1100 440 L 1100 440 L 1140 440 L 1140 440 L 1180 440 L 1180 440 L 1220 440 L 1220 440 L 1260 440 L 1260 440 L 1300 440 L 1300 440 L 1340 440 L 1340 440 L 1380 440 L 1380 440 L 1420 440 L 1420 440 L 1460 440 L 1460 440 L 1500 440 L 1500 440 L 1540 440 L 1540 440 L 1580 440 L 1580 440 L 1620 440 L 1620 440 L 1660 440 L 1660 440 L 1700 440 L 1700 440 L 1740 440 L 1740 440 L 1780 440 L 1780 440 L 1820 440 L 1820 440 L 1860 440 L 1860 440 L 1900 440 L 1900 440 L 1940 440 L 1940 440 L 1980 440 L 1980 440 L 2020 440 L 2020 440 L 2060 440 L 2060 440 L 2100 440 L 2100 440 L 2140 440 L 2140 440 L 2180 440 L 2180 440 L 2220 440 L 2220 440 L 2260 440 L 2260 440 L 2300 440 L 2300 440 L 2340 440 L 2340 440 L 2380 440 L 2380 440 L 2420 440 L 2420 440 L 2460 440 L 2460 440 L 2500 440 L 2500 440 L 2540 440 L 2540 440 L 2580 440 L 2580 440 L 2620 440 L 2620 440 L 2660 440 L 2660 440 L 2700 440 L 2700 440 L 2740 440 L 2740 440 L 2780 440 L 2780 440 L 2820 440 L 2820 440 L 2860 440 L 2860 440 L 2900 440 L 2900 440 L 2940 440 L 2940 440 L 2980 440 L 2980 440 L 3020 440 L 3020 440 A 20 20 0 0 1 3040 460 L 3040 460 A 20 20 0 0 0 3060 480 L 3060 480 A 20 20 0 0 1 3080 500 L 3080 500 A 20 20 0 0 1 3060 520 L 3060 520 A 20 20 0 0 1 3040 500 L 3040 500 A 20 20 0 0 0 3020 480 L 3020 480 L 2980 480 L 2980 480 L 2940 480 L 2940 480 L 2900 480 L 2900 480 L 2860 480 L 2860 480 L 2820 480 L 2820 480 L 2780 480 L 2780 480 L 2740 480 L 2740 480 L 2700 480 L 2700 480 L 2660 480 L 2660 480 L 2620 480 L 2620 480 L 2580 480 L 2580 480 L 2540 480 L 2540 480 L 2500 480 L 2500 480 L 2460 480 L 2460 480 L 2420 480 L 2420 480 L 2380 480 L 2380 480 L 2340 480 L 2340 480 L 2300 480 L 2300 480 L 2260 480 L 2260 480 L 2220 480 L 2220 480 L 2180 480 L 2180 480 L 2140 480 L 2140 480 L 2100 480 L 2100 480 L 2060 480 L 2060 480 L 2020 480 L 2020 480 L 1980 480 L 1980 480 L 1940 480 L 1940 480 L 1900 480 L 1900 480 L 1860 480 L 1860 480 L 1820 480 L 1820 480 L 1780 480 L 1780 480 L 1740 480 L 1740 480 L 1700 480 L 1700 480 L 1660 480 L 1660 480 L 1620 480 L 1620 480 L 1580 480 L 1580 480 L 1540 480 L 1540 480 L 1500 480 L 1500 480 L 1460 480 L 1460 480 L 1420 480 L 1420 480 L 1380 480 L 1380 480 L 1340 480 L 1340 480 L 1300 480 L 1300 480 L 1260 480 L 1260 480 L 1220 480 L 1220 480 L 1180 480 L 1180 480 L 1140 480 L 1140 480 L 1100 480 L 1100 480 L 1060 480 L 1060 480 L 1020 480 L 1020 480 L 980 480 L 980 480 L 940 480 L 940 480 L 900 480 L 900 480 L 860 480 L 860 480 L 820 480 L 820 480 L 780 480 L 780 480 L 740 480 L 740 480 L 700 480 L 700 480 L 660 480 L 660 480 L 620 480 L 620 480 L 580 480 L 580 480 L 540 480 L 540 480 L 500 480 L 500 480 L 460 480 L 460 480 L 420 480 L 420 480 L 380 480 L 380 480 L 340 480 L 340 480 L 300 480 L 300 480 L 260 480 L 260 480 L 220 480 L 220 480 A 20 20 0 0 0 200 500 L 200 500 A 20 20 0 0 1 180 520 L 180 520 A 20 20 0 0 1 160 500 L 160 500 A 20 20 0 0 1 180 480 Z M 140 160 L 140 160 A 20 20 0 0 1 160 180 L 160 180 L 160 220 L 160 220 L 160 260 L 160 260 L 160 300 L 160 300 L 160 340 L 160 340 L 160 380 L 160 380 L 160 420 L 160 420 A 20 20 0 0 1 140 440 L 140 440 A 20 20 0 0 0 120 460 L 120 460 A 20 20 0 0 1 100 480 L 100 480 A 20 20 0 0 1 80 460 L 80 460 A 20 20 0 0 1 100 440 L 100 440 A 20 20 0 0 0 120 420 L 120 420 L 120 380 L 120 380 L 120 340 L 120 340 L 120 300 L 120 300 L 120 260 L 120 260 L 120 220 L 120 220 L 120 180 L 120 180 A 20 20 0 0 0 100 160 L 100 160 A 20 20 0 0 1 80 140 L 80 140 A 20 20 0 0 1 100 120 L 100 120 A 20 20 0 0 1 120 140 L 120 140 A 20 20 0 0 0 140 160 Z M 3120 220 L 3120 220 L 3120 260 L 3120 260 L 3120 300 L 3120 300 L 3120 340 L 3120 340 L 3120 380 L 3120 380 L 3120 420 L 3120 420 A 20 20 0 0 0 3140 440 L 3140 440 A 20 20 0 0 1 3160 460 L 3160 460 A 20 20 0 0 1 3140 480 L 3140 480 A 20 20 0 0 1 3120 460 L 3120 460 A 20 20 0 0 0 3100 440 L 3100 440 A 20 20 0 0 1 3080 420 L 3080 420 L 3080 380 L 3080 380 L 3080 340 L 3080 340 L 3080 300 L 3080 300 L 3080 260 L 3080 260 L 3080 220 L 3080 220 L 3080 180 L 3080 180 A 20 20 0 0 1 3100 160 L 3100 160 A 20 20 0 0 0 3120 140 L 3120 140 A 20 20 0 0 1 3140 120 L 3140 120 A 20 20 0 0 1 3160 140 L 3160 140 A 20 20 0 0 1 3140 160 L 3140 160 A 20 20 0 0 0 3120 180 L 3120 180 L 3120 220 Z" fill="#08080A"/>
</svg>